# xmcd
#
# Track frame offsets: 
#        150
#        24525
#        53400
#
# Disc length: 1025 seconds
#
# Revision: 3
# Processed by: cddbd v1.5.2PL0 Copyright (c) Steve Scherf et al.
# Submitted via: ExactAudioCopy v1.1
#
DISCID=1803ff03
DTITLE=坂本龍一 - 坂本龍一 コレクション Disc 8 Behind The Mask MDCZ-1123-30
DYEAR=2008
DGENRE=JPop
TTITLE0=Behind The Mask
TTITLE1=Risky
TTITLE2=Field Work
EXTD=YEAR: 2008
EXTT0=
EXTT1=
EXTT2=
PLAYORDER=
